<?xml version="1.0" encoding="iso-8859-1"?>
<!-- Generator: Adobe Illustrator 19.0.0, SVG Export Plug-In . SVG Version: 6.00 Build 0)  -->
<svg version="1.1" id="Capa_1" xmlns="http://www.w3.org/2000/svg" xmlns:xlink="http://www.w3.org/1999/xlink" x="0px" y="0px"
	 viewBox="0 0 512 512" style="enable-background:new 0 0 512 512;" xml:space="preserve">
<path d="M0,355.2v-324c0-5.6,4.8-10.4,10.4-10.4h491.2c5.6,0,10.4,4.8,10.4,10.4v324H0z"/>
<g>
	<path style="fill:#CCCCCC;" d="M512,355.2v41.6c0,5.6-4.8,10.4-10.4,10.4H10.4c-5.6,0-10.4-4.8-10.4-10.4v-41.6H512z"/>
	<rect x="146.4" y="480.8" style="fill:#CCCCCC;" width="219.2" height="10.4"/>
</g>
<polygon style="fill:#999999;" points="328.8,480.8 183.2,480.8 193.6,407.2 318.4,407.2 "/>
<rect x="20.8" y="41.6" style="fill:#FFFFFF;" width="470.4" height="292.8"/>
<polygon style="fill:#666666;" points="318.4,407.2 193.6,407.2 187.792,448.28 320.272,420.424 "/>
<rect x="41.504" y="58.944" style="fill:#CCCCCC;" width="23.488" height="23.488"/>
<rect x="99.24" y="87.28" style="fill:#666666;" width="23.488" height="23.488"/>
<rect x="151.312" y="58.944" style="fill:#CCCCCC;" width="23.488" height="23.488"/>
<g>
	<rect x="266.936" y="105.92" style="fill:#666666;" width="23.488" height="23.488"/>
	<rect x="378" y="70.688" style="fill:#666666;" width="23.488" height="23.488"/>
</g>
<g>
	<rect x="447.016" y="146.608" style="fill:#CCCCCC;" width="23.488" height="23.488"/>
	<rect x="396" y="295.04" style="fill:#CCCCCC;" width="23.488" height="23.488"/>
	<rect x="308.648" y="271.56" style="fill:#CCCCCC;" width="23.488" height="23.488"/>
</g>
<rect x="180.32" y="291.2" style="fill:#666666;" width="23.488" height="23.488"/>
<rect x="75.76" y="271.56" style="fill:#CCCCCC;" width="23.488" height="23.488"/>
<path style="fill:#999999;" d="M421.408,249.872H89.512c-8.6,0-16.128-7.528-16.128-16.128V137.4c0-8.6,7.528-16.128,16.128-16.128
	H422.48c8.6,0,16.12,7.528,16.12,16.128v97.424C437.536,242.352,431.088,249.872,421.408,249.872z"/>
<g>
	<path style="fill:#FFFFFF;" d="M176.392,197.136c2.192,1.352,5.4,2.48,8.784,2.48c5.008,0,7.928-2.64,7.928-6.472
		c0-3.544-2.024-5.568-7.144-7.536c-6.192-2.192-10.024-5.408-10.024-10.752c0-5.904,4.896-10.296,12.272-10.296
		c3.88,0,6.696,0.896,8.384,1.856l-1.352,3.992c-1.232-0.672-3.776-1.808-7.2-1.808c-5.176,0-7.152,3.104-7.152,5.688
		c0,3.544,2.312,5.288,7.536,7.312c6.424,2.48,9.68,5.576,9.68,11.152c0,5.848-4.328,10.912-13.28,10.912
		c-3.656,0-7.648-1.072-9.672-2.424L176.392,197.136z"/>
	<path style="fill:#FFFFFF;" d="M227.448,195.672c0,2.816,0.056,5.288,0.224,7.432h-4.392l-0.28-4.448h-0.112
		c-1.296,2.192-4.168,5.064-9.008,5.064c-4.272,0-9.4-2.36-9.4-11.928v-15.92h4.952v15.08c0,5.176,1.576,8.664,6.08,8.664
		c3.32,0,5.624-2.304,6.528-4.496c0.28-0.728,0.448-1.632,0.448-2.528V175.88h4.952v19.792H227.448z"/>
	<path style="fill:#FFFFFF;" d="M235.456,203.104c0.112-1.856,0.224-4.616,0.224-7.032v-32.92h4.888v17.112h0.12
		c1.744-3.04,4.896-5.016,9.28-5.016c6.76,0,11.536,5.632,11.488,13.904c0,9.736-6.136,14.568-12.208,14.568
		c-3.936,0-7.096-1.512-9.12-5.12h-0.168l-0.224,4.496h-4.28V203.104z M240.568,192.192c0,0.616,0.12,1.232,0.224,1.8
		c0.96,3.432,3.832,5.8,7.432,5.8c5.176,0,8.272-4.216,8.272-10.472c0-5.456-2.816-10.128-8.104-10.128
		c-3.376,0-6.528,2.304-7.536,6.08c-0.12,0.56-0.288,1.232-0.288,2.024L240.568,192.192L240.568,192.192z"/>
	<path style="fill:#FFFFFF;" d="M267.04,198.04c1.472,0.952,4.056,1.968,6.528,1.968c3.6,0,5.288-1.808,5.288-4.056
		c0-2.36-1.408-3.656-5.064-5.008c-4.896-1.744-7.2-4.448-7.2-7.712c0-4.392,3.544-7.992,9.4-7.992c2.76,0,5.168,0.792,6.696,1.696
		l-1.24,3.6c-1.064-0.68-3.04-1.576-5.568-1.576c-2.92,0-4.552,1.688-4.552,3.712c0,2.248,1.632,3.264,5.176,4.616
		c4.728,1.8,7.144,4.168,7.144,8.216c0,4.784-3.712,8.16-10.176,8.16c-2.984,0-5.744-0.736-7.656-1.856L267.04,198.04z"/>
	<path style="fill:#FFFFFF;" d="M309.432,202.088c-1.296,0.68-4.168,1.576-7.824,1.576c-8.216,0-13.56-5.568-13.56-13.896
		c0-8.384,5.736-14.464,14.632-14.464c2.92,0,5.504,0.728,6.856,1.408l-1.128,3.832c-1.176-0.68-3.04-1.296-5.736-1.296
		c-6.248,0-9.624,4.616-9.624,10.296c0,6.304,4.048,10.184,9.456,10.184c2.816,0,4.672-0.736,6.08-1.352L309.432,202.088z"/>
	<path style="fill:#FFFFFF;" d="M315.24,184.36c0-3.2-0.056-5.96-0.224-8.496h4.336l0.168,5.344h0.224
		c1.24-3.656,4.216-5.968,7.536-5.968c0.56,0,0.96,0.064,1.408,0.168v4.672c-0.496-0.112-1.008-0.168-1.688-0.168
		c-3.488,0-5.96,2.648-6.64,6.36c-0.112,0.68-0.224,1.472-0.224,2.312v14.512h-4.888V184.36H315.24z"/>
	<path style="fill:#FFFFFF;" d="M339.4,168.216c0.056,1.688-1.184,3.04-3.16,3.04c-1.744,0-2.976-1.352-2.976-3.04
		c0-1.744,1.288-3.096,3.096-3.096C338.208,165.12,339.4,166.472,339.4,168.216z M333.88,203.104v-27.232h4.952v27.232H333.88z"/>
	<path style="fill:#FFFFFF;" d="M346.824,203.104c0.112-1.856,0.224-4.616,0.224-7.032v-32.92h4.888v17.112h0.12
		c1.744-3.04,4.896-5.016,9.28-5.016c6.76,0,11.536,5.632,11.488,13.904c0,9.736-6.136,14.568-12.208,14.568
		c-3.936,0-7.096-1.512-9.12-5.12h-0.168l-0.224,4.496h-4.28V203.104z M351.944,192.192c0,0.616,0.12,1.232,0.224,1.8
		c0.96,3.432,3.832,5.8,7.432,5.8c5.176,0,8.272-4.216,8.272-10.472c0-5.456-2.816-10.128-8.104-10.128
		c-3.376,0-6.528,2.304-7.536,6.08c-0.12,0.56-0.288,1.232-0.288,2.024V192.192z"/>
	<path style="fill:#FFFFFF;" d="M381.848,190.384c0.112,6.696,4.392,9.456,9.344,9.456c3.536,0,5.68-0.616,7.536-1.408l0.84,3.544
		c-1.752,0.792-4.728,1.688-9.064,1.688c-8.384,0-13.392-5.512-13.392-13.736c0-8.208,4.832-14.688,12.776-14.688
		c8.888,0,11.248,7.832,11.248,12.832c0,1.008-0.112,1.8-0.168,2.304h-19.12V190.384z M396.368,186.84
		c0.056-3.152-1.288-8.048-6.864-8.048c-5.008,0-7.2,4.616-7.592,8.048H396.368z"/>
	<polygon style="fill:#FFFFFF;" points="148.04,185.576 109.696,163.44 109.696,207.712 	"/>
</g>
<g>
</g>
<g>
</g>
<g>
</g>
<g>
</g>
<g>
</g>
<g>
</g>
<g>
</g>
<g>
</g>
<g>
</g>
<g>
</g>
<g>
</g>
<g>
</g>
<g>
</g>
<g>
</g>
<g>
</g>
</svg>
